<?xml version="1.0" encoding="UTF-8" standalone="no"?>
<svg
   xmlns:dc="http://purl.org/dc/elements/1.1/"
   xmlns:cc="http://creativecommons.org/ns#"
   xmlns:rdf="http://www.w3.org/1999/02/22-rdf-syntax-ns#"
   xmlns:svg="http://www.w3.org/2000/svg"
   xmlns="http://www.w3.org/2000/svg"
   viewBox="0 0 574.22668 574.22668"
   height="574.22668"
   width="574.22668"
   xml:space="preserve"
   id="svg2"
   version="1.1"><metadata
     id="metadata8"><rdf:RDF><cc:Work
         rdf:about=""><dc:format>image/svg+xml</dc:format><dc:type
           rdf:resource="http://purl.org/dc/dcmitype/StillImage" /></cc:Work></rdf:RDF></metadata><defs
     id="defs6" /><g
     transform="matrix(1.3333333,0,0,-1.3333333,0,574.22667)"
     id="g10"><g
       transform="scale(0.1)"
       id="g12"><path
         id="path14"
         style="fill:#45bf93;fill-opacity:1;fill-rule:nonzero;stroke:none"
         d="m 1694.48,2929.3 c 108.08,59.46 211.25,128.07 322.95,180.98 C 1627.2,3361.54 1237.8,3614.06 848.004,3865.93 332.621,3472.49 0,2851.82 0,2153.37 0,2107.38 1.61328,2061.76 4.45313,2016.48 404.176,2227.05 813.086,2446.99 1207.56,2657.68 c 165.21,85.21 323.97,182.17 486.92,271.62" /><path
         id="path16"
         style="fill:#45bf93;fill-opacity:1;fill-rule:nonzero;stroke:none"
         d="m 2927.77,2768.42 c 3.42,203.38 4.76,406.75 10.98,610.1 7.88,257.63 9.48,515.64 17.8,773.3 -248.21,99.85 -519.25,154.92 -803.18,154.92 -430.58,0 -831.6,-126.45 -1168.073,-344.14 378.363,-244.68 756.433,-489.85 1134.653,-734.7 274.19,-143.89 538.69,-306 807.82,-459.48" /><path
         id="path18"
         style="fill:#45bf93;fill-opacity:1;fill-rule:nonzero;stroke:none"
         d="m 1404.34,1538.67 c -0.74,-146.22 -17.18,-291.79 -12.85,-438.16 -1.51,-176.26 -17.07,-352.069 -14.85,-528.381 C 1373.13,431.34 1366.32,290.672 1362.42,149.93 1607.28,53.1797 1874.11,0 2153.37,0 c 432.08,0 834.37,127.359 1171.57,346.43 -400.62,260.422 -802.45,519.121 -1203.2,779.25 -238.52,138.78 -479.48,273.24 -717.4,412.99" /><path
         id="path20"
         style="fill:#45bf93;fill-opacity:1;fill-rule:nonzero;stroke:none"
         d="m 1234.03,1049.92 c 5.84,192.97 14.65,385.62 14.56,578.76 -6.06,293.39 -0.11,587.22 4.71,880.73 C 828.871,2278.8 440.387,2078.54 20.2695,1857.89 119.625,1134.03 578.625,524.879 1211.3,216.57 c 3.17,70.43 6.08,140.86 7.01,211.352 -2.05,207.59 18.66,414.527 15.72,621.998" /><path
         id="path22"
         style="fill:#45bf93;fill-opacity:1;fill-rule:nonzero;stroke:none"
         d="m 3085.4,2592.16 c -5.87,-265.37 -1.52,-531 -11.21,-796.21 400.24,204.44 812.46,412.8 1216.94,616.93 -88.04,732.79 -544.05,1352.29 -1177.95,1668.48 -5.78,-265.68 -7.67,-531.5 -19.38,-797.09 2.5,-230.81 -16.24,-461.34 -8.4,-692.11" /><path
         id="path24"
         style="fill:#434244;fill-opacity:1;fill-rule:nonzero;stroke:none"
         d="m 2850.89,1479.93 c -170.47,-98.67 -342.34,-194.6 -513.18,-292.57 377.53,-246.391 755.91,-491.45 1134.4,-736.29 507.77,393.93 834.63,1009.9 834.63,1702.3 0,27.93 -0.71,55.69 -1.76,83.36 -382.15,-197.03 -756.7,-390 -1143.33,-586.19 -107.4,-49.89 -206.38,-115.11 -310.76,-170.61" /></g></g></svg>